<?xml version="1.0" encoding="UTF-8" standalone="no"?><svg xmlns="http://www.w3.org/2000/svg" xmlns:xlink="http://www.w3.org/1999/xlink" fill="#1fc667" height="318.9" preserveAspectRatio="xMidYMid meet" version="1" viewBox="0.0 0.0 649.4 318.9" width="649.4" zoomAndPan="magnify"><defs><clipPath id="a"><path d="M 0 0 L 207 0 L 207 318.898438 L 0 318.898438 Z M 0 0"/></clipPath><clipPath id="b"><path d="M 402 28 L 649.390625 28 L 649.390625 110 L 402 110 Z M 402 28"/></clipPath></defs><g><g clip-path="url(#a)" id="change1_6"><path d="M 123.316406 196.945312 C 119.136719 208.25 114.261719 219.277344 107.988281 229.558594 C 94.894531 251.019531 80.34375 271.417969 61.726562 288.535156 C 53.054688 296.515625 43.578125 303.460938 32.527344 307.984375 C 28.449219 309.648438 24.265625 310.238281 19.90625 309.851562 C 14.902344 309.402344 11.792969 306.605469 10.117188 302.027344 C 8.257812 296.9375 7.855469 291.6875 8.667969 286.351562 C 9.820312 278.769531 12.304688 271.589844 15.683594 264.761719 C 22.382812 251.199219 30.949219 238.863281 40.875 227.460938 C 54.195312 212.167969 69.128906 198.605469 85.109375 186.15625 C 99.269531 175.128906 114.152344 165.203125 129.722656 156.292969 C 130.214844 156.007812 130.648438 155.625 131.863281 154.726562 C 131.753906 158.003906 131.777344 159.960938 131.601562 161.898438 C 130.488281 173.96875 127.507812 185.601562 123.316406 196.945312 Z M 181.457031 191.179688 C 182.625 190.84375 184.167969 190.867188 184.890625 190.109375 C 186.847656 188.046875 188.859375 185.855469 190.125 183.347656 C 194.332031 175.050781 198.503906 166.71875 202.132812 158.160156 C 204.703125 152.085938 206.011719 145.5625 206.050781 138.867188 C 206.09375 131.335938 201.941406 126.105469 194.535156 124.457031 C 189.519531 123.34375 184.511719 123.753906 179.605469 124.921875 C 170.664062 127.046875 161.964844 129.945312 153.609375 133.835938 C 148.828125 136.058594 144.015625 138.238281 138.644531 140.695312 C 138.277344 139.171875 137.976562 138.238281 137.835938 137.285156 C 136.964844 131.304688 135.5625 125.503906 133.175781 119.898438 C 128.6875 109.390625 121.734375 101.242188 111.851562 95.367188 C 103.042969 90.128906 93.308594 87.003906 84.246094 82.410156 C 81.097656 80.816406 78.007812 78.816406 75.464844 76.394531 C 71.523438 72.644531 71.039062 67.007812 74.257812 61.25 C 76.96875 56.398438 80.0625 51.667969 83.59375 47.382812 C 92.777344 36.238281 103.699219 26.9375 115.816406 19.125 C 124.871094 13.285156 134.277344 8.027344 144.96875 5.691406 C 147.332031 5.171875 149.78125 4.769531 152.183594 4.785156 C 155.695312 4.8125 156.746094 6.292969 156.023438 9.65625 C 155.773438 10.804688 155.21875 12.054688 156.589844 12.660156 C 158.246094 13.394531 159.289062 12.222656 160.054688 10.929688 C 162.4375 6.921875 160.507812 1.644531 155.9375 0.601562 C 153.0625 -0.0585938 149.964844 -0.0703125 146.988281 0.0742188 C 140.574219 0.394531 134.660156 2.824219 128.960938 5.472656 C 106.984375 15.683594 88.300781 30.136719 73.941406 49.777344 C 71.195312 53.53125 69.007812 57.902344 67.484375 62.304688 C 64.246094 71.695312 67.183594 78.90625 75.992188 84.285156 C 82.074219 87.988281 88.878906 90.484375 95.25 93.742188 C 101.496094 96.933594 107.808594 100.082031 113.679688 103.886719 C 116.828125 105.925781 119.394531 109.085938 121.734375 112.113281 C 127.808594 119.96875 129.980469 129.335938 131.378906 138.917969 C 132.167969 144.289062 132.09375 144.332031 127.300781 147.03125 C 112.285156 155.484375 97.949219 164.964844 84.277344 175.453125 C 61.421875 192.992188 40.507812 212.46875 23.394531 235.816406 C 15.210938 246.984375 8.242188 258.773438 3.769531 271.925781 C 0.980469 280.152344 -0.644531 288.585938 0.246094 297.308594 C 1.761719 312.261719 13.015625 321.078125 27.328125 318.433594 C 30.824219 317.789062 34.289062 316.667969 37.59375 315.328125 C 49.328125 310.554688 59.273438 303.027344 68.367188 294.398438 C 86.40625 277.296875 100.757812 257.269531 113.34375 235.992188 C 118.210938 227.761719 122.148438 218.941406 126.007812 210.164062 C 133.808594 192.414062 138.519531 173.867188 138.878906 154.371094 C 138.917969 152.203125 139.691406 150.957031 141.554688 149.972656 C 154.273438 143.265625 167.277344 137.25 181.363281 134 C 184.523438 133.273438 187.902344 133.171875 191.164062 133.285156 C 195.425781 133.433594 197.179688 135.277344 196.960938 139.601562 C 196.773438 143.433594 196.261719 147.34375 195.230469 151.027344 C 192.554688 160.578125 188.53125 169.609375 184.097656 178.472656 C 182.632812 181.402344 181.574219 184.5625 180.660156 187.714844 C 180.371094 188.707031 181.160156 190.019531 181.457031 191.179688" fill="inherit"/></g><g id="change1_1"><path d="M 200.433594 248.042969 C 195.066406 257.496094 188.324219 265.734375 179.710938 272.417969 C 174.429688 276.511719 168.632812 279.5 162.105469 281.035156 C 154.011719 282.941406 148.441406 278.914062 148.109375 270.617188 C 147.710938 260.769531 151.199219 252.09375 156.730469 244.152344 C 166.5625 230.046875 179.980469 220.152344 194.996094 212.34375 C 202.21875 208.585938 209.835938 205.585938 217.308594 202.324219 C 218.386719 201.855469 219.644531 201.816406 221.816406 201.375 C 220.0625 206.261719 218.644531 210.25 217.195312 214.226562 C 212.851562 226.117188 206.65625 237.082031 200.433594 248.042969 Z M 230.777344 146.972656 C 227.800781 148.085938 226.203125 146.640625 226.492188 143.34375 C 226.851562 139.242188 230.417969 134.789062 234.359375 133.523438 C 236.859375 132.722656 239.859375 132.992188 240.210938 134.449219 C 240.59375 136.050781 240.003906 137.882812 239.839844 139.613281 C 237.28125 142.980469 234.492188 145.574219 230.777344 146.972656 Z M 281.191406 204.589844 C 278.71875 196.519531 273.449219 191.429688 265.394531 189.03125 C 257.332031 186.632812 249.222656 187.1875 241.085938 188.433594 C 237.902344 188.925781 234.734375 189.519531 231.171875 190.132812 C 231.390625 188.632812 231.4375 187.644531 231.6875 186.71875 C 234.59375 175.90625 237.433594 165.085938 240.496094 154.324219 C 242.179688 148.398438 244.117188 142.523438 247.578125 137.304688 C 248.046875 136.59375 248.453125 135.808594 248.71875 134.996094 C 249.484375 132.695312 248.769531 131.539062 246.414062 130.890625 C 244.503906 130.363281 242.585938 129.816406 240.730469 129.121094 C 237.765625 128.015625 234.832031 128.050781 231.886719 129.074219 C 225.515625 131.296875 221.042969 137.789062 221.101562 144.6875 C 221.152344 150.699219 225.871094 154.132812 231.621094 152.316406 C 232.8125 151.9375 233.964844 151.421875 236.035156 150.621094 C 235.148438 153.757812 228.5 178.054688 225.828125 188.035156 C 225.25 190.199219 224.488281 191.875 221.988281 192.664062 C 216.664062 194.347656 211.402344 196.269531 206.222656 198.34375 C 190.363281 204.691406 175.980469 213.433594 163.378906 225.042969 C 155.460938 232.332031 149.207031 240.855469 144.800781 250.632812 C 141.773438 257.347656 140.023438 264.421875 140.667969 271.945312 C 141.6875 283.875 150.9375 291.433594 163.664062 288.246094 C 175.246094 285.339844 184.351562 278.542969 192.195312 269.910156 C 204.324219 256.558594 212.214844 240.617188 219.210938 224.226562 C 222.300781 216.992188 224.664062 209.4375 227.273438 202.003906 C 227.882812 200.273438 228.601562 198.921875 230.546875 198.410156 C 240.15625 195.890625 249.820312 193.835938 259.847656 194.980469 C 269.441406 196.078125 275.460938 202.292969 276.316406 211.875 C 276.851562 217.769531 276.386719 223.621094 275.394531 229.433594 C 272.332031 247.335938 264.878906 263.601562 256.605469 279.550781 C 256.144531 280.441406 255.507812 281.230469 254.980469 282.085938 C 252.730469 285.742188 250.445312 289.382812 248.273438 293.085938 C 247.585938 294.265625 246.695312 295.574219 247.957031 297.171875 C 249.558594 297.519531 250.59375 296.417969 251.464844 295.363281 C 254.207031 292.058594 257.171875 288.867188 259.441406 285.257812 C 269.359375 269.484375 277.011719 252.707031 280.8125 234.359375 C 282.859375 224.472656 284.253906 214.574219 281.191406 204.589844" fill="inherit"/></g><g clip-path="url(#b)" id="change1_5"><path d="M 648.4375 28.664062 C 646.933594 29.203125 645.316406 29.542969 643.933594 30.308594 C 637.152344 34.039062 630.53125 38.078125 623.671875 41.652344 C 607.730469 49.96875 590.851562 56.027344 573.714844 61.253906 C 560.835938 65.183594 547.757812 68.503906 534.664062 71.675781 C 529.558594 72.910156 524.183594 73.164062 518.910156 73.53125 C 516.425781 73.699219 513.714844 73.453125 512.121094 70.40625 C 513.808594 68.136719 515.480469 65.84375 517.195312 63.578125 C 520.1875 59.605469 521.269531 55.0625 520.976562 50.203125 C 520.792969 47.152344 519.304688 44.683594 516.355469 43.488281 C 513.316406 42.265625 510.761719 43.476562 508.5 45.515625 C 507.96875 45.984375 507.460938 46.519531 507.054688 47.105469 C 503.582031 52.117188 500.585938 57.507812 500.523438 63.683594 C 500.472656 68.871094 498.683594 72.464844 494.21875 74.890625 C 493.472656 75.292969 492.898438 76 492.191406 76.484375 C 486.378906 80.457031 480.433594 84.207031 473.492188 85.925781 C 472.078125 86.277344 470.570312 86.222656 468.289062 86.425781 C 469.121094 84.183594 469.519531 82.703125 470.199219 81.371094 C 471.503906 78.816406 473.035156 76.382812 474.351562 73.828125 C 477.445312 67.816406 475.40625 63.5 468.695312 62.847656 C 464.027344 62.394531 459.238281 62.621094 454.554688 63.050781 C 450.308594 63.441406 448.820312 65.214844 448.894531 69.644531 C 449.023438 77.546875 445.882812 84.132812 441.234375 90.148438 C 438.785156 93.324219 435.6875 95.78125 430.945312 97.222656 C 431.097656 95.226562 431.132812 93.886719 431.3125 92.570312 C 431.550781 90.871094 432.25 89.152344 432.085938 87.507812 C 431.960938 86.3125 431 84.785156 429.96875 84.230469 C 429.128906 83.773438 427.40625 84.210938 426.484375 84.847656 C 425.363281 85.617188 424.703125 87.035156 423.785156 88.128906 C 420.753906 91.746094 417.816406 95.449219 414.59375 98.890625 C 413.222656 100.347656 411.234375 101.222656 409.527344 102.359375 C 409.25 102.164062 408.976562 101.972656 408.699219 101.773438 C 408.828125 100.421875 408.863281 99.050781 409.117188 97.71875 C 409.621094 95.042969 410.28125 92.394531 410.792969 89.722656 C 411.097656 88.128906 411.265625 86.339844 409.28125 85.769531 C 407.238281 85.179688 406.066406 86.535156 405.414062 88.304688 C 404.820312 89.917969 404.128906 91.539062 403.855469 93.214844 C 403.269531 96.722656 402.378906 100.304688 402.636719 103.777344 C 403.003906 108.605469 406.511719 110.613281 410.929688 108.625 C 414.128906 107.1875 416.929688 104.832031 419.835938 102.785156 C 421.0625 101.925781 422.109375 100.800781 423.179688 99.851562 C 423.960938 100.378906 424.351562 100.566406 424.652344 100.851562 C 429.183594 105.148438 431.964844 105.703125 437.296875 102.570312 C 444.261719 98.476562 449.753906 92.847656 452.648438 85.183594 C 454.152344 81.195312 454.957031 76.949219 456.183594 72.855469 C 456.445312 71.976562 457 70.683594 457.664062 70.511719 C 460.507812 69.777344 463.457031 69.105469 466.675781 70.902344 C 465.921875 72.453125 465.277344 73.851562 464.578125 75.21875 C 463.535156 77.257812 462.238281 79.199219 461.4375 81.328125 C 458.289062 89.65625 463.484375 96.089844 472.214844 94.417969 C 476.394531 93.613281 480.652344 92.363281 484.414062 90.421875 C 489.988281 87.539062 495.191406 83.925781 500.464844 80.488281 C 502.335938 79.269531 504.027344 77.910156 506.308594 79.359375 C 512.820312 83.488281 519.992188 83.402344 527.132812 82.179688 C 535.453125 80.746094 543.761719 79.085938 551.929688 76.964844 C 560.660156 74.699219 569.210938 71.738281 577.859375 69.15625 C 591.070312 65.203125 603.863281 60.179688 616.328125 54.3125 C 627.152344 49.214844 637.3125 43.0625 645.757812 34.4375 C 647.089844 33.070312 648.1875 31.476562 649.390625 29.992188 C 649.074219 29.550781 648.753906 29.105469 648.4375 28.664062" fill="inherit"/></g><g id="change1_2"><path d="M 324.125 118.96875 C 323.105469 119.976562 322.242188 121.199219 321.074219 121.976562 C 319.859375 122.789062 318.042969 123.976562 317.054688 123.585938 C 315.109375 122.804688 315.796875 120.589844 316.3125 119.03125 C 317.472656 115.582031 319.21875 112.464844 322.664062 110.71875 C 325.839844 109.109375 328.019531 110.058594 329.5625 113.644531 C 327.558594 115.605469 325.835938 117.277344 324.125 118.96875 Z M 394.429688 115.851562 C 393.621094 116.335938 392.644531 116.808594 391.800781 117.460938 C 390.898438 118.164062 390.199219 119.113281 389.296875 119.816406 C 386.863281 121.710938 385.121094 121.519531 383.683594 118.839844 C 382.550781 116.722656 381.414062 114.375 381.214844 112.054688 C 380.753906 106.648438 380.4375 101.164062 380.820312 95.765625 C 381.699219 83.292969 384.484375 71.113281 387.390625 58.96875 C 388.46875 54.457031 390.4375 51.039062 395.234375 49.785156 C 396.605469 49.425781 397.863281 48.65625 399.175781 48.078125 C 404.421875 45.761719 409.699219 43.519531 414.890625 41.089844 C 416.601562 40.285156 418.578125 39.492188 419.226562 36.660156 C 410.511719 35.523438 403.570312 40.816406 395.339844 42.375 C 395.703125 40.960938 395.800781 39.984375 396.199219 39.148438 C 398.453125 34.351562 400.949219 29.664062 403.023438 24.789062 C 404.410156 21.53125 405.390625 18.0625 406.25 14.617188 C 406.691406 12.84375 405.824219 11.242188 404.101562 10.308594 C 402.269531 9.316406 400.464844 9.511719 398.828125 10.671875 C 398.035156 11.234375 397.441406 12.097656 396.800781 12.855469 C 393.039062 17.320312 391.085938 22.769531 388.894531 28.023438 C 386.476562 33.835938 384.546875 39.859375 382.527344 45.835938 C 381.835938 47.886719 380.710938 49.238281 378.722656 50.152344 C 370.523438 53.945312 362.316406 57.734375 354.238281 61.769531 C 348.859375 64.460938 343.628906 67.460938 338.472656 70.558594 C 336.679688 71.632812 335.167969 73.296875 333.808594 74.921875 C 332.816406 76.109375 332.914062 77.675781 334.128906 78.832031 C 335.285156 79.925781 336.472656 79.453125 337.632812 78.652344 C 339.519531 77.355469 341.347656 75.921875 343.367188 74.863281 C 350.863281 70.957031 358.40625 67.128906 365.980469 63.367188 C 369.925781 61.410156 373.96875 59.648438 377.964844 57.796875 C 378.207031 58.0625 378.445312 58.324219 378.6875 58.585938 C 378.269531 59.605469 377.90625 60.652344 377.414062 61.636719 C 374.875 66.773438 372.476562 71.984375 369.707031 76.996094 C 363.269531 88.660156 357.625 100.835938 349.414062 111.410156 C 345.667969 116.238281 341.03125 120.386719 336.660156 124.699219 C 335.65625 125.683594 334.089844 126.097656 332.394531 126.96875 C 331.503906 123.382812 331.433594 120.480469 333.113281 118.039062 C 335.285156 114.875 335.140625 111.765625 333.410156 108.738281 C 331.535156 105.457031 328.269531 104.226562 324.621094 104.339844 C 315.976562 104.609375 307.898438 115.734375 310.136719 124.164062 C 311.558594 129.53125 315.6875 131.441406 320.734375 129.019531 C 322.121094 128.355469 323.433594 127.53125 324.890625 126.722656 C 325.359375 127.425781 325.691406 127.878906 325.976562 128.355469 C 328.769531 133.082031 332.199219 134.355469 337.144531 132.019531 C 339.566406 130.871094 341.8125 129.207031 343.882812 127.46875 C 351.3125 121.222656 357.214844 113.671875 362.066406 105.304688 C 365.308594 99.726562 368.367188 94.042969 371.53125 88.414062 C 372.046875 87.5 372.671875 86.652344 373.792969 84.9375 C 373.632812 87.5625 373.46875 89.113281 373.453125 90.664062 C 373.398438 96.8125 372.992188 102.996094 373.484375 109.105469 C 373.9375 114.8125 375.304688 120.46875 379.476562 124.902344 C 382.253906 127.859375 385.988281 128.714844 389.207031 127.160156 C 392.921875 125.359375 395.953125 120.253906 395.359375 116.722656 C 395.324219 116.507812 394.972656 116.34375 394.429688 115.851562" fill="inherit"/></g><g id="change1_3"><path d="M 260.695312 136.683594 C 260.132812 138.453125 259.472656 140.203125 259.007812 141.996094 C 258.625 143.5 259.011719 144.890625 260.425781 145.730469 C 261.882812 146.59375 263.304688 146.121094 264.304688 144.984375 C 265.433594 143.710938 266.277344 142.195312 267.269531 140.800781 C 269.921875 137.082031 272.550781 133.347656 275.273438 129.679688 C 275.777344 129.003906 276.699219 128.636719 277.515625 128.0625 C 278.09375 131.394531 278.378906 134.378906 279.167969 137.226562 C 280.058594 140.410156 282.398438 142.234375 285.777344 142.460938 C 290.996094 142.804688 301.402344 136.773438 303.636719 131.964844 C 304.105469 130.949219 303.808594 129.582031 303.863281 128.378906 C 302.660156 128.414062 301.289062 128.082031 300.308594 128.558594 C 297.613281 129.863281 295.117188 131.582031 292.464844 132.988281 C 290.605469 133.96875 288.691406 135.074219 285.984375 134.070312 C 285.886719 130.890625 285.835938 127.632812 285.675781 124.390625 C 285.382812 118.519531 281.230469 116.351562 276.21875 119.480469 C 274.785156 120.371094 273.515625 121.527344 272.253906 122.5 C 271.824219 122.261719 271.519531 122.183594 271.367188 121.992188 C 269.011719 118.917969 267.714844 118.929688 265.792969 122.109375 C 265.277344 122.964844 264.808594 123.871094 264.496094 124.816406 C 263.191406 128.761719 261.960938 132.726562 260.695312 136.683594" fill="inherit"/></g><g id="change1_4"><path d="M 206.398438 111.90625 C 206.398438 112.300781 206.601562 112.835938 206.894531 113.0625 C 207.734375 113.699219 208.628906 114.488281 209.589844 114.632812 C 209.972656 114.691406 210.863281 113.265625 211.050781 112.417969 C 211.847656 108.675781 212.632812 104.914062 213.082031 101.117188 C 213.238281 99.773438 212.429688 98.320312 212.222656 97.527344 C 209.484375 95.914062 207.078125 96.847656 206.71875 99.609375 C 206.191406 103.65625 206.4375 107.804688 206.398438 111.90625" fill="inherit"/></g></g></svg>