<?xml version="1.0" encoding="UTF-8" standalone="no"?><svg xmlns="http://www.w3.org/2000/svg" xmlns:xlink="http://www.w3.org/1999/xlink" fill="#011e11" height="260.4" preserveAspectRatio="xMidYMid meet" version="1" viewBox="0.0 0.0 260.4 260.4" width="260.4" zoomAndPan="magnify"><g id="change1_1"><path d="M259.85,149.65c0.38-0.38,0.59-0.89,0.59-1.42V114.5c0-0.53-0.21-1.04-0.59-1.42c-0.38-0.37-0.88-0.58-1.41-0.58 c0,0,0,0,0,0l-87.96,0.28c10.06-10.9,12.07-13.12,12.54-13.67l49.98-45.04c0.81-0.73,0.89-1.98,0.17-2.8l-22.21-25.39 c-0.72-0.82-1.97-0.92-2.8-0.21l-51.56,43.79c-0.31,0.27-0.64,0.56-0.94,0.87c-0.09,0.09-2.54,2.59-6.71,6.84l-1-75.19 c-0.01-1.09-0.91-1.97-2-1.97h-33.73c-1.09,0-1.99,0.88-2,1.97l-1.09,82.06L57.01,25.21c-0.36-0.4-0.86-0.64-1.39-0.67 c-0.53-0.04-1.06,0.16-1.45,0.52c0,0-30.7,28.08-30.89,28.26c-0.44,0.4-0.68,0.97-0.65,1.57c0.02,0.52,0.25,1.01,0.62,1.36 C24.32,57.34,50.59,85.2,76,112.14l0.88,0.93l-74.88,0.24c-1.1,0-1.99,0.9-1.99,2v32.1c0,1.1,0.89,2,1.99,2l75.78,0.24L49,178.96 c-15.31,15.6-26.04,26.52-26.14,26.63c-0.37,0.38-0.58,0.9-0.57,1.43c0.01,0.54,0.23,1.04,0.62,1.41l25.2,24.03 c2.21,2.11,3.49,3.33,4.29,4.03c0.09,0.14,0.21,0.28,0.36,0.42c0.3,0.29,0.66,0.46,1.04,0.53c0.04,0.01,0.07,0.01,0.1,0.01 c0.59,0.08,1.22-0.12,1.67-0.58c0.05-0.05,0.1-0.11,0.15-0.17c1.21-1.34,18.56-20.06,38.59-41.68l13.53-14.6l-1.04,77.99 c-0.01,0.53,0.2,1.05,0.58,1.43c0.38,0.38,0.89,0.6,1.42,0.6h40.55c0.54,0,1.05-0.21,1.42-0.6c0.38-0.38,0.58-0.9,0.58-1.43 l-0.92-69.48l56.75,48.88c0.83,0.71,2.07,0.63,2.8-0.19l22.42-25.21c0.73-0.82,0.66-2.06-0.14-2.8c0,0-60.63-55.66-63.64-58.42 c-0.16-0.19-0.59-0.67-1.1-1.25l90.93,0.29C259,150.22,259.48,150.02,259.85,149.65z"/></g></svg>